<?xml version="1.0" standalone="no"?>
<!DOCTYPE svg PUBLIC "-//W3C//DTD SVG 20010904//EN"
 "http://www.w3.org/TR/2001/REC-SVG-20010904/DTD/svg10.dtd">
<svg version="1.0" xmlns="http://www.w3.org/2000/svg"
 width="500.000000pt" height="500.000000pt" viewBox="0 0 500.000000 500.000000"
 preserveAspectRatio="xMidYMid meet">
<metadata>
Created by potrace 1.11, written by Peter Selinger 2001-2013
</metadata>
<g transform="translate(0.000000,500.000000) scale(0.100000,-0.100000)"
fill="#000000" stroke="none">
<path d="M966 4984 c-164 -30 -317 -92 -455 -185 -207 -139 -366 -346 -447
-581 -62 -181 -58 -62 -61 -1693 -2 -1558 -3 -1527 38 -1670 78 -271 234 -491
463 -650 68 -47 184 -111 191 -104 8 9 20 185 20 299 0 106 -7 204 -20 272
-13 70 -16 100 -20 198 -3 89 0 116 20 178 33 102 92 183 180 247 15 11 32 25
39 30 20 19 179 121 241 155 145 80 326 186 344 202 20 17 20 17 -5 85 -43
112 -68 201 -93 332 -8 39 -13 168 -14 386 -1 96 10 272 17 284 3 4 8 23 10
42 8 52 14 78 46 201 47 175 98 381 104 419 23 142 60 290 92 369 51 122 122
245 166 285 44 40 177 115 203 115 7 0 42 14 78 30 59 28 74 31 168 31 185 1
354 -34 440 -90 68 -45 130 -106 246 -244 136 -162 231 -329 279 -492 9 -33
21 -64 25 -69 4 -5 5 -15 2 -22 -3 -8 0 -21 7 -29 7 -8 9 -15 5 -15 -4 0 -3
-6 2 -12 9 -11 23 -55 24 -73 0 -2 7 -21 15 -42 9 -20 17 -44 19 -52 2 -9 8
-35 14 -58 6 -24 16 -62 22 -85 6 -24 13 -51 15 -60 2 -10 7 -28 10 -40 3 -13
7 -30 9 -38 2 -8 4 -15 5 -15 1 0 3 -8 5 -17 2 -10 17 -62 34 -116 18 -55 34
-111 37 -125 2 -15 9 -38 14 -53 6 -15 8 -29 5 -32 -2 -3 0 -11 6 -19 6 -7 9
-13 5 -13 -3 0 -1 -12 4 -26 6 -14 12 -53 14 -86 3 -33 7 -62 10 -65 2 -3 1
-16 -4 -29 -5 -13 -6 -26 -1 -28 11 -7 11 -156 0 -204 -5 -22 -10 -54 -13 -73
-2 -19 -7 -41 -11 -50 -7 -19 20 -29 100 -35 85 -7 105 -10 112 -17 3 -4 15
-7 25 -7 10 0 36 -11 58 -25 22 -14 42 -25 45 -25 24 0 165 -148 165 -173 0
-7 4 -17 9 -22 12 -14 30 -92 36 -155 3 -30 8 -66 10 -80 2 -14 7 -45 10 -70
3 -25 10 -72 15 -105 5 -33 12 -96 16 -140 3 -44 8 -89 11 -100 2 -11 6 -137
8 -280 3 -143 6 -276 8 -295 3 -19 8 -61 12 -93 4 -32 8 -94 8 -138 l0 -80 26
6 c64 16 204 83 291 141 110 71 238 195 309 298 52 76 131 225 131 248 0 8 4
18 9 24 4 5 16 37 25 71 46 169 45 137 45 1668 0 1371 -1 1455 -19 1545 -69
354 -287 651 -602 818 -63 33 -233 96 -288 106 -19 3 -46 9 -60 13 -14 4 -691
8 -1505 9 -1245 2 -1493 0 -1559 -12z"/>
<path d="M2165 3946 c-74 -34 -122 -85 -268 -278 -134 -179 -162 -229 -182
-333 -21 -106 -37 -203 -37 -226 -2 -48 -23 -21 -26 32 -1 29 -7 60 -13 70 -5
11 -7 24 -4 29 3 6 -5 10 -20 10 -17 0 -29 -8 -37 -25 -6 -14 -15 -25 -20 -25
-5 0 -6 -4 -3 -10 3 -5 1 -19 -6 -32 -16 -30 -21 -203 -7 -256 16 -65 116
-160 160 -153 4 0 12 -25 18 -57 43 -205 78 -306 141 -408 17 -28 34 -117 53
-294 10 -81 22 -120 55 -172 35 -55 62 -65 113 -43 21 8 42 15 48 15 45 0 -70
-114 -132 -130 -63 -16 -88 -28 -88 -43 0 -18 111 -132 146 -150 92 -47 223
-76 334 -74 l85 2 86 62 c92 66 144 119 160 161 14 37 4 52 -34 52 -32 0 -36
4 -60 57 -32 70 -31 110 8 353 24 153 35 192 84 315 62 158 65 182 31 295 -22
72 -23 92 -26 475 -1 220 -5 412 -7 427 -25 135 -109 262 -214 325 -98 57
-250 71 -338 29z"/>
</g>
</svg>
