<?xml version="1.0" standalone="no"?>
<!DOCTYPE svg PUBLIC "-//W3C//DTD SVG 20010904//EN"
 "http://www.w3.org/TR/2001/REC-SVG-20010904/DTD/svg10.dtd">
<svg version="1.0" xmlns="http://www.w3.org/2000/svg"
 width="512.000000pt" height="512.000000pt" viewBox="0 0 512.000000 512.000000"
 preserveAspectRatio="xMidYMid meet">
<metadata>
Created by potrace 1.14, written by Peter Selinger 2001-2017
</metadata>
<g transform="translate(0.000000,512.000000) scale(0.100000,-0.100000)"
fill="#000000" stroke="none">
<path d="M975 5100 c-147 -29 -251 -68 -402 -151 -24 -12 -43 -26 -43 -31 0
-4 -7 -8 -15 -8 -8 0 -15 -4 -15 -8 0 -4 -12 -15 -27 -24 -16 -9 -39 -27 -53
-40 -14 -13 -38 -33 -54 -46 -16 -12 -26 -22 -22 -22 3 0 -9 -15 -27 -32 -18
-18 -53 -60 -77 -93 -25 -33 -49 -63 -55 -67 -7 -5 -7 -8 0 -8 6 0 6 -3 0 -8
-21 -14 -116 -214 -131 -272 -2 -8 -10 -40 -18 -70 -8 -30 -18 -71 -22 -90
-12 -52 -15 -3022 -3 -3099 5 -35 11 -73 13 -85 7 -40 48 -170 66 -211 9 -22
23 -55 31 -72 8 -18 17 -33 21 -33 5 0 7 -3 6 -7 -4 -12 73 -133 85 -133 4 0
7 -7 7 -15 0 -7 8 -19 17 -24 10 -6 15 -11 11 -11 -13 0 158 -167 207 -201 27
-19 55 -38 61 -44 6 -5 28 -19 50 -30 21 -11 41 -22 44 -26 3 -3 23 -13 45
-23 22 -10 44 -21 48 -23 5 -3 6 35 3 83 -7 103 -8 329 -2 394 3 25 7 83 11
129 4 47 8 92 10 100 1 9 6 43 9 76 11 92 35 177 61 211 70 92 254 235 434
337 66 37 134 84 150 103 35 40 83 130 100 189 10 32 69 309 86 400 10 51 43
314 60 475 6 59 18 149 31 240 7 54 21 102 74 265 27 83 61 200 74 260 71 311
190 547 333 659 93 73 229 136 330 152 19 3 45 8 57 10 11 3 64 5 116 5 174
-1 283 -45 401 -161 159 -157 270 -376 319 -625 32 -164 34 -176 55 -375 4
-36 9 -73 11 -84 2 -10 6 -53 9 -95 3 -42 8 -94 10 -116 7 -73 18 -428 17
-560 -3 -319 -3 -324 19 -495 5 -41 11 -92 13 -112 14 -111 52 -279 66 -288
12 -8 140 -121 197 -174 68 -63 85 -91 125 -207 l33 -94 0 -395 0 -395 65 1
c80 1 163 13 245 36 22 6 49 13 60 15 10 2 22 7 25 11 3 4 14 8 25 10 11 2 29
9 40 16 11 7 37 18 58 25 20 7 37 17 37 22 0 5 6 9 13 9 7 0 36 16 64 35 29
19 57 35 63 35 6 0 8 5 5 10 -3 6 1 10 9 10 8 0 20 8 25 18 6 9 11 13 11 9 0
-11 190 181 190 192 0 5 13 23 28 41 16 17 39 53 53 79 13 25 26 48 30 51 8 7
45 94 73 168 17 44 34 109 41 152 2 14 9 48 14 75 12 60 10 3054 -2 3100 -5
17 -13 50 -18 75 -23 107 -110 320 -130 320 -5 0 -8 4 -6 8 3 12 -59 108 -98
151 -16 19 -42 48 -57 65 -16 17 -28 35 -28 40 0 5 -3 7 -6 3 -4 -3 -22 9 -40
28 -19 19 -38 35 -44 35 -6 0 -8 5 -5 10 3 6 -1 10 -10 10 -8 0 -23 9 -32 20
-10 11 -23 20 -30 20 -7 0 -13 4 -13 8 0 5 -17 17 -37 29 -21 11 -60 33 -88
48 -27 16 -52 28 -55 28 -3 -1 -21 5 -39 13 -56 23 -160 52 -246 68 -69 13
-293 15 -1570 15 -1394 -1 -1496 -2 -1580 -19z"/>
<path d="M2275 3156 c-135 -31 -269 -86 -286 -117 -16 -30 -6 -381 15 -499 32
-188 84 -363 133 -447 26 -46 49 -127 58 -214 7 -62 23 -204 31 -269 11 -90
85 -398 120 -505 82 -246 123 -321 235 -431 42 -41 79 -83 82 -93 7 -28 -18
-77 -50 -97 -15 -10 -30 -19 -32 -21 -6 -4 30 -55 57 -80 14 -13 32 -23 41
-23 25 0 281 296 281 323 0 7 -5 31 -10 53 -11 49 -14 129 -6 164 4 14 12 58
18 97 12 77 6 104 -35 146 -10 10 -23 30 -29 45 -10 26 -14 235 -4 250 2 4 7
32 11 62 19 160 101 482 143 565 37 73 57 123 115 291 91 261 88 247 92 484 2
118 1 235 -3 259 l-7 43 -110 5 c-60 2 -130 6 -155 8 -25 3 -180 7 -345 10
-234 4 -313 2 -360 -9z"/>
</g>
</svg>
