<svg width="242" height="128" viewBox="0 0 242 128" fill="none" xmlns="http://www.w3.org/2000/svg">
<g clip-path="url(#clip0_2463_230)">
<path d="M9.088 14.56V108H20.864V14.56H9.088Z" fill="#54669C"/>
<path d="M33.584 34.912C35.248 36.448 37.296 37.216 39.856 37.216C42.16 37.216 44.208 36.448 46 34.912C47.792 33.376 48.688 31.328 48.688 28.768C48.688 26.208 47.792 24.16 46.128 22.624C44.336 21.088 42.288 20.192 39.856 20.192C37.296 20.192 35.248 21.088 33.584 22.624C31.792 24.16 31.024 26.208 31.024 28.768C31.024 31.328 31.792 33.376 33.584 34.912ZM45.744 47.712H33.968V108H45.744V47.712Z" fill="#A54A5E"/>
<path d="M70.24 14.56H58.848V108H70.624V73.696C70.624 68.832 72.032 64.864 74.848 61.792C77.664 58.72 81.504 57.184 86.368 57.184C91.104 57.184 94.944 58.72 97.76 61.792C100.576 64.864 101.984 68.832 101.984 73.696V108H113.76V72.544C113.76 67.552 112.736 63.072 110.816 58.976C108.896 55.008 106.08 51.808 102.496 49.504C98.784 47.2 94.432 46.048 89.44 46.048C85.344 46.048 81.632 46.816 78.304 48.352C74.976 49.888 72.288 52.32 70.24 55.392V14.56Z" fill="#E84311"/>
<path d="M146.851 106.976C150.691 108.768 154.915 109.664 159.523 109.664C165.283 109.664 170.403 108.256 174.883 105.44C179.235 102.624 182.691 98.784 185.123 93.92C187.555 89.056 188.835 83.68 188.835 77.664C188.835 71.776 187.555 66.528 185.123 61.664C182.691 56.928 179.235 53.088 174.883 50.272C170.403 47.456 165.283 46.048 159.523 46.048C155.043 46.048 150.819 46.944 146.979 48.608C143.011 50.4 139.811 52.832 137.379 56.16V14.56H125.603V108H137.379V99.04C139.939 102.624 143.011 105.184 146.851 106.976ZM171.299 92.768C167.843 96.736 163.235 98.656 157.347 98.656C151.203 98.656 146.467 96.736 143.139 92.768C139.683 88.928 138.019 83.936 138.019 77.792C138.019 71.904 139.683 66.912 143.139 62.944C146.595 58.976 151.331 56.928 157.347 56.928C163.235 56.928 167.843 58.976 171.299 62.944C174.755 66.912 176.547 71.904 176.547 77.792C176.547 83.808 174.755 88.8 171.299 92.768Z" fill="#F27602"/>
<path d="M197.983 47.712V108H209.759V69.088C209.759 65.504 210.527 62.56 212.191 60.384C213.855 58.208 216.159 57.056 219.231 57.056C222.047 57.056 224.223 57.952 225.759 59.616C227.295 61.28 227.935 63.456 227.935 66.272H239.583C239.711 60.384 238.303 55.776 235.487 52.192C232.671 48.608 228.447 46.816 223.071 46.816C219.999 46.816 217.311 47.456 215.007 48.736C212.703 50.016 210.911 51.808 209.759 54.368V47.712H197.983Z" fill="#759F53"/>
</g>
<defs>
<clipPath id="clip0_2463_230">
<rect width="242" height="128" fill="white"/>
</clipPath>
</defs>
</svg>
