<svg width="262" height="128" viewBox="0 0 262 128" fill="none" xmlns="http://www.w3.org/2000/svg">
<path d="M23.6875 111H6.5V17.4375H23.6875V111Z" fill="#54669C"/>
<path d="M56.875 25.875C56.875 27.4583 56.5625 28.9375 55.9375 30.3125C55.3542 31.6875 54.5417 32.8958 53.5 33.9375C52.4583 34.9375 51.2292 35.75 49.8125 36.375C48.4375 36.9583 46.9583 37.25 45.375 37.25C43.7917 37.25 42.2917 36.9583 40.875 36.375C39.5 35.75 38.2917 34.9375 37.25 33.9375C36.25 32.8958 35.4375 31.6875 34.8125 30.3125C34.2292 28.9375 33.9375 27.4583 33.9375 25.875C33.9375 24.3333 34.2292 22.875 34.8125 21.5C35.4375 20.0833 36.25 18.875 37.25 17.875C38.2917 16.8333 39.5 16.0208 40.875 15.4375C42.2917 14.8125 43.7917 14.5 45.375 14.5C46.9583 14.5 48.4375 14.8125 49.8125 15.4375C51.2292 16.0208 52.4583 16.8333 53.5 17.875C54.5417 18.875 55.3542 20.0833 55.9375 21.5C56.5625 22.875 56.875 24.3333 56.875 25.875ZM53.9375 111H36.75V44.0625H53.9375V111Z" fill="#A54A5E"/>
<path d="M84.0625 111H67V17.4375H84.0625V47C86.1042 45.4583 88.2083 44.375 90.375 43.75C92.5417 43.0833 94.75 42.75 97 42.75C101.125 42.75 105 43.5417 108.625 45.125C112.25 46.6667 115.396 48.8125 118.062 51.5625C120.771 54.2708 122.896 57.4583 124.438 61.125C126.021 64.75 126.812 68.625 126.812 72.75V111H109.625V72.75H109.75C109.75 71 109.417 69.3542 108.75 67.8125C108.083 66.2292 107.167 64.8542 106 63.6875C104.833 62.5208 103.479 61.6042 101.938 60.9375C100.396 60.2708 98.75 59.9375 97 59.9375C95.2083 59.9375 93.5208 60.2708 91.9375 60.9375C90.3542 61.6042 88.9792 62.5208 87.8125 63.6875C86.6458 64.8542 85.7292 66.2292 85.0625 67.8125C84.3958 69.3542 84.0625 71 84.0625 72.75V111Z" fill="#E84311"/>
<path d="M206 76.9375C206 82.1875 205.104 86.9792 203.312 91.3125C201.521 95.6458 199.083 99.375 196 102.5C192.917 105.583 189.292 107.979 185.125 109.688C181 111.396 176.562 112.25 171.812 112.25C167.104 112.25 162.667 111.375 158.5 109.625C154.375 107.875 150.75 105.438 147.625 102.312C144.542 99.1875 142.104 95.4792 140.312 91.1875C138.521 86.8542 137.625 82.1042 137.625 76.9375V17.4375H154.75V48.6875C155.667 47.5208 156.771 46.4792 158.062 45.5625C159.396 44.6458 160.812 43.8958 162.312 43.3125C163.854 42.7292 165.438 42.2917 167.062 42C168.688 41.6667 170.271 41.5 171.812 41.5C176.562 41.5 181 42.3958 185.125 44.1875C189.292 45.9375 192.917 48.3958 196 51.5625C199.083 54.7292 201.521 58.4792 203.312 62.8125C205.104 67.1042 206 71.8125 206 76.9375ZM188.812 76.9375C188.812 74.3542 188.354 71.9583 187.438 69.75C186.562 67.5 185.354 65.5625 183.812 63.9375C182.271 62.3125 180.458 61.0417 178.375 60.125C176.333 59.2083 174.146 58.75 171.812 58.75C169.479 58.75 167.271 59.2708 165.188 60.3125C163.146 61.3125 161.354 62.6667 159.812 64.375C158.271 66.0417 157.062 67.9792 156.188 70.1875C155.312 72.3542 154.875 74.6042 154.875 76.9375C154.875 79.5208 155.312 81.9167 156.188 84.125C157.062 86.3333 158.271 88.25 159.812 89.875C161.354 91.5 163.146 92.7917 165.188 93.75C167.271 94.6667 169.479 95.125 171.812 95.125C174.146 95.125 176.333 94.6667 178.375 93.75C180.458 92.7917 182.271 91.5 183.812 89.875C185.354 88.25 186.562 86.3333 187.438 84.125C188.354 81.9167 188.812 79.5208 188.812 76.9375Z" fill="#F27502"/>
<path d="M232.562 111H215.5V44.0625H219.625L225.25 52C228 49.5 231.125 47.5833 234.625 46.25C238.125 44.875 241.75 44.1875 245.5 44.1875H260.562V61.1875H245.5C243.708 61.1875 242.021 61.5208 240.438 62.1875C238.854 62.8542 237.479 63.7708 236.312 64.9375C235.146 66.1042 234.229 67.4792 233.562 69.0625C232.896 70.6458 232.562 72.3333 232.562 74.125V111Z" fill="#759F53"/>
</svg>
