<svg width="128" height="128" viewBox="0 0 128 128" xmlns="http://www.w3.org/2000/svg">
<path d="M64 0C28.6299 0 0 28.6243 0 64C0 99.3701 28.6243 128 64 128C76.4268 128 88.6044 124.351 98.944 117.62C102.042 115.603 102.718 111.352 100.377 108.492L97.7504 105.283C95.7708 102.865 92.2849 102.272 89.6542 103.959C82.0439 108.841 73.1133 111.484 64 111.484C37.8173 111.484 16.5161 90.1827 16.5161 64C16.5161 37.8173 37.8173 16.5161 64 16.5161C89.8423 16.5161 111.484 31.3855 111.484 57.8064C111.484 67.8157 106.041 78.385 96.4723 79.4046C91.9951 79.2875 92.1084 76.0867 92.9946 71.6565L99.0418 40.4023C99.7814 36.5806 96.8537 33.0323 92.9613 33.0323H81.3533C80.4962 33.0322 79.6691 33.3477 79.0298 33.9186C78.3905 34.4894 77.9837 35.2756 77.887 36.1272L77.8844 36.151C74.0916 31.5314 67.4462 30.5316 62.408 30.5316C43.1615 30.5316 26.8387 46.592 26.8387 69.6181C26.8387 86.4704 36.3316 96.9394 51.6129 96.9394C58.5765 96.9394 66.4178 92.904 70.9654 87.047C73.4227 95.848 81.4462 95.8477 89.2132 95.8477C117.318 95.8477 128 77.3672 128 57.8064C128 22.6201 99.6188 0 64 0ZM58.4052 78.5626C52.6635 78.5626 49.0968 74.5308 49.0968 68.041C49.0968 56.4299 57.0397 49.2723 64.2271 49.2723C69.9799 49.2723 73.4144 53.2054 73.4144 59.7935C73.4144 71.4222 64.6725 78.5626 58.4052 78.5626Z" />
</svg>
