<svg width="128" height="128" viewBox="0 0 128 128" xmlns="http://www.w3.org/2000/svg">
<path d="M120.917 0C122.861 0 124.528 0.694443 125.917 2.08333C127.306 3.47222 128 5.13888 128 7.08332V120.917C128 122.861 127.306 124.528 125.917 125.917C124.528 127.306 122.861 128 120.917 128H88.3333V78.4167H104.917L107.417 59.0833H88.3333V46.75C88.3333 43.6389 88.9861 41.3055 90.2917 39.75C91.5972 38.1944 94.1389 37.4167 97.9167 37.4167L108.083 37.3333V20.0833C104.583 19.5833 99.6389 19.3333 93.25 19.3333C85.6944 19.3333 79.6528 21.5556 75.125 26C70.5972 30.4444 68.3333 36.7222 68.3333 44.8333V59.0833H51.6667V78.4167H68.3333V128H7.08333C5.13889 128 3.47222 127.306 2.08333 125.917C0.694445 124.528 0 122.861 0 120.917V7.08332C0 5.13888 0.694445 3.47222 2.08333 2.08333C3.47222 0.694443 5.13889 0 7.08333 0H120.917Z" />
</svg>
