<svg width="128" height="128" viewBox="0 0 128 128" xmlns="http://www.w3.org/2000/svg">
<path d="M64 2C28.64 2 0 30.4653 0 65.5742C0 93.6687 18.336 117.493 43.76 125.89C46.96 126.489 48.1333 124.523 48.1333 122.833C48.1333 121.323 48.08 117.324 48.0533 112.026C30.2507 115.861 26.496 103.496 26.496 103.496C23.584 96.1586 19.376 94.1984 19.376 94.1984C13.5787 90.2568 19.824 90.3363 19.824 90.3363C26.2507 90.7813 29.6267 96.8844 29.6267 96.8844C35.3333 106.606 44.608 103.798 48.2667 102.172C48.8427 98.0606 50.4907 95.258 52.32 93.6686C38.1067 92.0793 23.168 86.6119 23.168 62.2524C23.168 55.3122 25.648 49.6435 29.7547 45.1933C29.0347 43.5881 26.8747 37.1247 30.3147 28.3674C30.3147 28.3674 35.6747 26.6615 47.9147 34.8837C53.0347 33.4692 58.4747 32.7699 63.9147 32.7381C69.3547 32.7699 74.7947 33.4692 79.9147 34.8837C92.0747 26.6615 97.4347 28.3674 97.4347 28.3674C100.875 37.1247 98.7147 43.5881 98.0747 45.1933C102.155 49.6435 104.635 55.3122 104.635 62.2524C104.635 86.6755 89.6747 92.0528 75.4347 93.6157C77.6747 95.5229 79.7547 99.4221 79.7547 105.377C79.7547 113.885 79.6747 120.719 79.6747 122.786C79.6747 124.454 80.7947 126.441 84.0747 125.805C109.68 117.467 128 93.6263 128 65.5742C128 30.4653 99.344 2 64 2" />
</svg>
