<svg width="128" height="128" viewBox="0 0 128 128" xmlns="http://www.w3.org/2000/svg">
<path d="M85.3333 64C85.3333 58.1111 83.25 53.0833 79.0833 48.9167C74.9167 44.75 69.8889 42.6667 64 42.6667C58.1111 42.6667 53.0833 44.75 48.9167 48.9167C44.75 53.0833 42.6667 58.1111 42.6667 64C42.6667 69.8889 44.75 74.9167 48.9167 79.0833C53.0833 83.25 58.1111 85.3333 64 85.3333C69.8889 85.3333 74.9167 83.25 79.0833 79.0833C83.25 74.9167 85.3333 69.8889 85.3333 64ZM96.8333 64C96.8333 73.1111 93.6389 80.8611 87.25 87.25C80.8611 93.6389 73.1111 96.8333 64 96.8333C54.8889 96.8333 47.1389 93.6389 40.75 87.25C34.3611 80.8611 31.1667 73.1111 31.1667 64C31.1667 54.8889 34.3611 47.1389 40.75 40.75C47.1389 34.3611 54.8889 31.1667 64 31.1667C73.1111 31.1667 80.8611 34.3611 87.25 40.75C93.6389 47.1389 96.8333 54.8889 96.8333 64ZM105.833 29.8333C105.833 31.9444 105.083 33.75 103.583 35.25C102.083 36.75 100.278 37.5 98.1667 37.5C96.0555 37.5 94.25 36.75 92.75 35.25C91.25 33.75 90.5 31.9444 90.5 29.8333C90.5 27.7222 91.25 25.9167 92.75 24.4167C94.25 22.9167 96.0555 22.1667 98.1667 22.1667C100.278 22.1667 102.083 22.9167 103.583 24.4167C105.083 25.9167 105.833 27.7222 105.833 29.8333ZM64 11.5C63.6111 11.5 61.4861 11.4861 57.625 11.4583C53.7639 11.4305 50.8333 11.4305 48.8333 11.4583C46.8333 11.4861 44.1528 11.5694 40.7917 11.7083C37.4306 11.8472 34.5694 12.125 32.2083 12.5417C29.8472 12.9583 27.8611 13.4722 26.25 14.0833C23.4722 15.1944 21.0278 16.8055 18.9167 18.9167C16.8056 21.0278 15.1944 23.4722 14.0833 26.25C13.4722 27.8611 12.9583 29.8472 12.5417 32.2083C12.125 34.5694 11.8472 37.4305 11.7083 40.7917C11.5694 44.1528 11.4861 46.8333 11.4583 48.8333C11.4306 50.8333 11.4306 53.7639 11.4583 57.625C11.4861 61.4861 11.5 63.6111 11.5 64C11.5 64.3889 11.4861 66.5139 11.4583 70.375C11.4306 74.2361 11.4306 77.1667 11.4583 79.1667C11.4861 81.1667 11.5694 83.8472 11.7083 87.2083C11.8472 90.5694 12.125 93.4306 12.5417 95.7917C12.9583 98.1528 13.4722 100.139 14.0833 101.75C15.1944 104.528 16.8056 106.972 18.9167 109.083C21.0278 111.194 23.4722 112.806 26.25 113.917C27.8611 114.528 29.8472 115.042 32.2083 115.458C34.5694 115.875 37.4306 116.153 40.7917 116.292C44.1528 116.431 46.8333 116.514 48.8333 116.542C50.8333 116.569 53.7639 116.569 57.625 116.542C61.4861 116.514 63.6111 116.5 64 116.5C64.3889 116.5 66.5139 116.514 70.375 116.542C74.2361 116.569 77.1667 116.569 79.1667 116.542C81.1667 116.514 83.8472 116.431 87.2083 116.292C90.5694 116.153 93.4305 115.875 95.7917 115.458C98.1528 115.042 100.139 114.528 101.75 113.917C104.528 112.806 106.972 111.194 109.083 109.083C111.194 106.972 112.806 104.528 113.917 101.75C114.528 100.139 115.042 98.1528 115.458 95.7917C115.875 93.4306 116.153 90.5694 116.292 87.2083C116.431 83.8472 116.514 81.1667 116.542 79.1667C116.569 77.1667 116.569 74.2361 116.542 70.375C116.514 66.5139 116.5 64.3889 116.5 64C116.5 63.6111 116.514 61.4861 116.542 57.625C116.569 53.7639 116.569 50.8333 116.542 48.8333C116.514 46.8333 116.431 44.1528 116.292 40.7917C116.153 37.4305 115.875 34.5694 115.458 32.2083C115.042 29.8472 114.528 27.8611 113.917 26.25C112.806 23.4722 111.194 21.0278 109.083 18.9167C106.972 16.8055 104.528 15.1944 101.75 14.0833C100.139 13.4722 98.1528 12.9583 95.7917 12.5417C93.4305 12.125 90.5694 11.8472 87.2083 11.7083C83.8472 11.5694 81.1667 11.4861 79.1667 11.4583C77.1667 11.4305 74.2361 11.4305 70.375 11.4583C66.5139 11.4861 64.3889 11.5 64 11.5ZM128 64C128 76.7222 127.861 85.5278 127.583 90.4167C127.028 101.972 123.583 110.917 117.25 117.25C110.917 123.583 101.972 127.028 90.4167 127.583C85.5278 127.861 76.7222 128 64 128C51.2778 128 42.4722 127.861 37.5833 127.583C26.0278 127.028 17.0833 123.583 10.75 117.25C4.41667 110.917 0.97222 101.972 0.416665 90.4167C0.13889 85.5278 0 76.7222 0 64C0 51.2778 0.13889 42.4722 0.416665 37.5833C0.97222 26.0278 4.41667 17.0833 10.75 10.75C17.0833 4.41665 26.0278 0.972224 37.5833 0.416669C42.4722 0.138894 51.2778 0 64 0C76.7222 0 85.5278 0.138894 90.4167 0.416669C101.972 0.972224 110.917 4.41665 117.25 10.75C123.583 17.0833 127.028 26.0278 127.583 37.5833C127.861 42.4722 128 51.2778 128 64Z" />
</svg>
