<svg width="128" height="128" viewBox="0 0 128 128" xmlns="http://www.w3.org/2000/svg">
<path d="M97.6471 84.7059C97.6471 83.268 97.1438 82.0458 96.1373 81.0392L84.9216 69.8235C83.915 68.817 82.6928 68.3137 81.2549 68.3137C79.7451 68.3137 78.451 68.8889 77.3725 70.0392C77.4804 70.1471 77.8219 70.4796 78.3971 71.0368C78.9722 71.594 79.3587 71.9804 79.5564 72.1961C79.7541 72.4118 80.0237 72.7533 80.3652 73.2206C80.7067 73.6879 80.9404 74.1462 81.0662 74.5956C81.192 75.0449 81.2549 75.5392 81.2549 76.0784C81.2549 77.5163 80.7516 78.7386 79.7451 79.7451C78.7386 80.7516 77.5163 81.2549 76.0784 81.2549C75.5392 81.2549 75.0449 81.192 74.5956 81.0662C74.1462 80.9404 73.6879 80.7067 73.2206 80.3652C72.7533 80.0237 72.4118 79.7541 72.1961 79.5564C71.9804 79.3587 71.594 78.9722 71.0368 78.3971C70.4796 77.8219 70.1471 77.4804 70.0392 77.3725C68.8529 78.4869 68.2598 79.799 68.2598 81.3088C68.2598 82.7467 68.7631 83.9689 69.7696 84.9755L80.8775 96.1373C81.848 97.1078 83.0703 97.5931 84.5441 97.5931C85.982 97.5931 87.2043 97.1258 88.2108 96.1912L96.1373 88.3186C97.1438 87.3121 97.6471 86.1078 97.6471 84.7059ZM59.7402 46.6912C59.7402 45.2533 59.2369 44.031 58.2304 43.0245L47.1226 31.8627C46.116 30.8562 44.8938 30.3529 43.4559 30.3529C42.0539 30.3529 40.8317 30.8382 39.7892 31.8088L31.8627 39.6814C30.8562 40.6879 30.3529 41.8922 30.3529 43.2941C30.3529 44.732 30.8562 45.9543 31.8627 46.9608L43.0784 58.1765C44.049 59.1471 45.2712 59.6324 46.7451 59.6324C48.2549 59.6324 49.549 59.0752 50.6275 57.9608C50.5196 57.8529 50.1781 57.5204 49.6029 56.9632C49.0278 56.406 48.6413 56.0196 48.4436 55.8039C48.2459 55.5882 47.9763 55.2467 47.6348 54.7794C47.2933 54.3121 47.0596 53.8538 46.9338 53.4044C46.808 52.9551 46.7451 52.4608 46.7451 51.9216C46.7451 50.4837 47.2484 49.2614 48.2549 48.2549C49.2614 47.2484 50.4837 46.7451 51.9216 46.7451C52.4608 46.7451 52.9551 46.808 53.4044 46.9338C53.8538 47.0596 54.3121 47.2933 54.7794 47.6348C55.2467 47.9763 55.5882 48.2459 55.8039 48.4436C56.0196 48.6413 56.4061 49.0278 56.9632 49.6029C57.5204 50.1781 57.8529 50.5196 57.9608 50.6274C59.1471 49.5131 59.7402 48.201 59.7402 46.6912ZM108 84.7059C108 89.0196 106.472 92.6683 103.417 95.652L95.4902 103.525C92.5065 106.508 88.8578 108 84.5441 108C80.1944 108 76.5278 106.472 73.5441 103.417L62.4363 92.2549C59.4526 89.2712 57.9608 85.6226 57.9608 81.3088C57.9608 76.8873 59.5425 73.1307 62.7059 70.0392L57.9608 65.2941C54.8693 68.4575 51.1307 70.0392 46.7451 70.0392C42.4314 70.0392 38.7647 68.5294 35.7451 65.5098L24.5294 54.2941C21.5098 51.2745 20 47.6078 20 43.2941C20 38.9804 21.5278 35.3317 24.5833 32.348L32.5098 24.4755C35.4935 21.4918 39.1422 20 43.4559 20C47.8056 20 51.4722 21.5278 54.4559 24.5833L65.5637 35.7451C68.5474 38.7288 70.0392 42.3775 70.0392 46.6912C70.0392 51.1127 68.4575 54.8693 65.2941 57.9608L70.0392 62.7059C73.1307 59.5425 76.8693 57.9608 81.2549 57.9608C85.5686 57.9608 89.2353 59.4706 92.2549 62.4902L103.471 73.7059C106.49 76.7255 108 80.3922 108 84.7059Z" />
</svg>
