<svg width="128" height="128" viewBox="0 0 128 128" xmlns="http://www.w3.org/2000/svg">
<path d="M19.75 107.167H39V49.3333H19.75V107.167ZM40.25 31.5C40.1944 28.6111 39.1944 26.2222 37.25 24.3333C35.3056 22.4444 32.7222 21.5 29.5 21.5C26.2778 21.5 23.6528 22.4444 21.625 24.3333C19.5972 26.2222 18.5833 28.6111 18.5833 31.5C18.5833 34.3333 19.5694 36.7083 21.5417 38.625C23.5139 40.5417 26.0833 41.5 29.25 41.5H29.3333C32.6111 41.5 35.25 40.5417 37.25 38.625C39.25 36.7083 40.25 34.3333 40.25 31.5ZM89 107.167H108.25V74C108.25 65.4444 106.222 58.9722 102.167 54.5833C98.1111 50.1944 92.75 48 86.0833 48C78.5278 48 72.7222 51.25 68.6667 57.75H68.8333V49.3333H49.5833C49.75 53 49.75 72.2778 49.5833 107.167H68.8333V74.8333C68.8333 72.7222 69.0278 71.1667 69.4167 70.1667C70.25 68.2222 71.5 66.5694 73.1667 65.2083C74.8333 63.8472 76.8889 63.1667 79.3333 63.1667C85.7778 63.1667 89 67.5278 89 76.25V107.167ZM128 24V104C128 110.611 125.653 116.264 120.958 120.958C116.264 125.653 110.611 128 104 128H24C17.3889 128 11.7361 125.653 7.04167 120.958C2.34722 116.264 0 110.611 0 104V24C0 17.3889 2.34722 11.7361 7.04167 7.04166C11.7361 2.34722 17.3889 0 24 0H104C110.611 0 116.264 2.34722 120.958 7.04166C125.653 11.7361 128 17.3889 128 24Z" />
</svg>
