<svg width="262" height="128" viewBox="0 0 262 128" xmlns="http://www.w3.org/2000/svg">
<path d="M23.6875 111H6.5V17.4375H23.6875V111ZM56.875 25.875C56.875 27.4583 56.5625 28.9375 55.9375 30.3125C55.3542 31.6875 54.5417 32.8958 53.5 33.9375C52.4583 34.9375 51.2292 35.75 49.8125 36.375C48.4375 36.9583 46.9583 37.25 45.375 37.25C43.7917 37.25 42.2917 36.9583 40.875 36.375C39.5 35.75 38.2917 34.9375 37.25 33.9375C36.25 32.8958 35.4375 31.6875 34.8125 30.3125C34.2292 28.9375 33.9375 27.4583 33.9375 25.875C33.9375 24.3333 34.2292 22.875 34.8125 21.5C35.4375 20.0833 36.25 18.875 37.25 17.875C38.2917 16.8333 39.5 16.0208 40.875 15.4375C42.2917 14.8125 43.7917 14.5 45.375 14.5C46.9583 14.5 48.4375 14.8125 49.8125 15.4375C51.2292 16.0208 52.4583 16.8333 53.5 17.875C54.5417 18.875 55.3542 20.0833 55.9375 21.5C56.5625 22.875 56.875 24.3333 56.875 25.875ZM53.9375 111H36.75V44.0625H53.9375V111ZM84.0625 111H67V17.4375H84.0625V47C86.1042 45.4583 88.2083 44.375 90.375 43.75C92.5417 43.0833 94.75 42.75 97 42.75C101.125 42.75 105 43.5417 108.625 45.125C112.25 46.6667 115.396 48.8125 118.062 51.5625C120.771 54.2708 122.896 57.4583 124.438 61.125C126.021 64.75 126.812 68.625 126.812 72.75V111H109.625V72.75H109.75C109.75 71 109.417 69.3542 108.75 67.8125C108.083 66.2292 107.167 64.8542 106 63.6875C104.833 62.5208 103.479 61.6042 101.938 60.9375C100.396 60.2708 98.75 59.9375 97 59.9375C95.2083 59.9375 93.5208 60.2708 91.9375 60.9375C90.3542 61.6042 88.9792 62.5208 87.8125 63.6875C86.6458 64.8542 85.7292 66.2292 85.0625 67.8125C84.3958 69.3542 84.0625 71 84.0625 72.75V111ZM205.5 76.9375C205.5 82.1875 204.604 86.9792 202.812 91.3125C201.021 95.6458 198.583 99.375 195.5 102.5C192.417 105.583 188.792 107.979 184.625 109.688C180.5 111.396 176.062 112.25 171.312 112.25C166.604 112.25 162.167 111.375 158 109.625C153.875 107.875 150.25 105.438 147.125 102.312C144.042 99.1875 141.604 95.4792 139.812 91.1875C138.021 86.8542 137.125 82.1042 137.125 76.9375V17.4375H154.25V48.6875C155.167 47.5208 156.271 46.4792 157.562 45.5625C158.896 44.6458 160.312 43.8958 161.812 43.3125C163.354 42.7292 164.938 42.2917 166.562 42C168.188 41.6667 169.771 41.5 171.312 41.5C176.062 41.5 180.5 42.3958 184.625 44.1875C188.792 45.9375 192.417 48.3958 195.5 51.5625C198.583 54.7292 201.021 58.4792 202.812 62.8125C204.604 67.1042 205.5 71.8125 205.5 76.9375ZM188.312 76.9375C188.312 74.3542 187.854 71.9583 186.938 69.75C186.062 67.5 184.854 65.5625 183.312 63.9375C181.771 62.3125 179.958 61.0417 177.875 60.125C175.833 59.2083 173.646 58.75 171.312 58.75C168.979 58.75 166.771 59.2708 164.688 60.3125C162.646 61.3125 160.854 62.6667 159.312 64.375C157.771 66.0417 156.562 67.9792 155.688 70.1875C154.812 72.3542 154.375 74.6042 154.375 76.9375C154.375 79.5208 154.812 81.9167 155.688 84.125C156.562 86.3333 157.771 88.25 159.312 89.875C160.854 91.5 162.646 92.7917 164.688 93.75C166.771 94.6667 168.979 95.125 171.312 95.125C173.646 95.125 175.833 94.6667 177.875 93.75C179.958 92.7917 181.771 91.5 183.312 89.875C184.854 88.25 186.062 86.3333 186.938 84.125C187.854 81.9167 188.312 79.5208 188.312 76.9375ZM232.062 111H215V44.0625H219.125L224.75 52C227.5 49.5 230.625 47.5833 234.125 46.25C237.625 44.875 241.25 44.1875 245 44.1875H260.062V61.1875H245C243.208 61.1875 241.521 61.5208 239.938 62.1875C238.354 62.8542 236.979 63.7708 235.812 64.9375C234.646 66.1042 233.729 67.4792 233.062 69.0625C232.396 70.6458 232.062 72.3333 232.062 74.125V111Z" />
</svg>
