<svg width="128" height="128" viewBox="0 0 128 128" xmlns="http://www.w3.org/2000/svg">
<path d="M97.744 86.5077C97.0696 86.5306 96.3952 86.5535 95.7207 86.5535C84.5812 86.5535 74.0929 82.223 66.2324 74.318C58.3487 66.436 54.0232 55.9648 54.0232 44.8062C54.0232 38.4594 55.4418 32.3187 58.0929 26.7738C58.8139 25.2615 60.2557 22.9702 61.2557 21.4122C61.6976 20.7477 61.1394 19.877 60.3487 20.0145C58.9534 20.2207 56.8139 20.6789 53.9069 21.5725C35.8139 27.232 23 44.0043 23 63.7781C23 88.2033 42.7906 108 67.2092 108C80.6975 108 92.7905 101.951 100.907 92.3963C102.302 90.7466 103.581 89.2343 104.721 87.4013C105.139 86.7139 104.558 85.8661 103.767 86.0036C101.79 86.3931 99.7905 86.4161 97.744 86.5077Z" />
</svg>
