<svg width="128" height="128" viewBox="0 0 128 128" xmlns="http://www.w3.org/2000/svg">
<path d="M106.629 20.5402C107.709 21.3259 108.151 22.3735 107.955 23.683L95.3835 99.1116C95.2198 100.061 94.696 100.798 93.8121 101.321C93.3538 101.583 92.8463 101.714 92.2898 101.714C91.9297 101.714 91.5368 101.632 91.1112 101.469L68.8661 92.3839L56.9824 106.871C56.3932 107.624 55.5911 108 54.5762 108C54.1506 108 53.7905 107.935 53.4959 107.804C52.8739 107.574 52.3746 107.19 51.9981 106.65C51.6217 106.109 51.4334 105.512 51.4334 104.857V87.7188L93.8612 35.7143L41.3667 81.1384L21.9697 73.183C20.7584 72.7247 20.1037 71.8244 20.0055 70.4822C19.94 69.1726 20.4638 68.2069 21.5769 67.5848L103.29 20.442C103.781 20.1473 104.304 20 104.861 20C105.516 20 106.105 20.1801 106.629 20.5402Z" />
</svg>
