<svg width="128" height="128" viewBox="0 0 128 128" xmlns="http://www.w3.org/2000/svg">
<path d="M90.6667 82.2266C87.2933 82.2266 84.2533 83.5389 81.9422 85.6377L50.2667 67.2654C50.5067 66.2712 50.6667 65.2505 50.6667 64.1856C50.6667 63.1164 50.5067 62.0957 50.2667 61.1015L81.6044 42.9279C83.9867 45.1327 87.1556 46.5113 90.6667 46.5113C98.0267 46.5113 104 40.5728 104 33.2557C104 25.9341 98.0267 20 90.6667 20C83.3067 20 77.3333 25.9341 77.3333 33.2557C77.3333 34.3205 77.4933 35.3412 77.7333 36.3354L46.3956 54.5089C44.0134 52.304 40.8444 50.9299 37.3333 50.9299C29.9733 50.9299 24 56.8641 24 64.1856C24 71.5028 29.9733 77.4413 37.3333 77.4413C40.8444 77.4413 44.0134 76.0627 46.3956 73.8578L78.0578 92.2213C77.8444 93.1537 77.7022 94.1125 77.7022 95.1155C77.7022 102.229 83.5111 108 90.6667 108C97.8222 108 103.631 102.229 103.631 95.1155C103.631 87.9972 97.8222 82.2266 90.6667 82.2266Z" />
</svg>
