<svg width="128" height="128" viewBox="0 0 128 128" xmlns="http://www.w3.org/2000/svg">
<path d="M64 91.7115C62.2019 91.7115 60.7423 93.1712 60.7423 94.9692V104.742C60.7423 106.54 62.2019 108 64 108C65.7981 108 67.2577 106.54 67.2577 104.742V94.9692C67.2577 93.1712 65.7981 91.7115 64 91.7115Z" />
<path d="M64 20C62.2019 20 60.7423 21.4596 60.7423 23.2577V33.0308C60.7423 34.8288 62.2019 36.2885 64 36.2885C65.7981 36.2885 67.2577 34.8288 67.2577 33.0308V23.2577C67.2577 21.4596 65.7981 20 64 20Z" />
<path d="M36.2885 64C36.2885 62.2019 34.8288 60.7423 33.0308 60.7423H23.2577C21.4596 60.7423 20 62.2019 20 64C20 65.7981 21.4596 67.2577 23.2577 67.2577H33.0308C34.8288 67.2577 36.2885 65.7981 36.2885 64Z" />
<path d="M104.742 60.7423H94.9692C93.1712 60.7423 91.7115 62.2019 91.7115 64C91.7115 65.7981 93.1712 67.2577 94.9692 67.2577H104.742C106.54 67.2577 108 65.7981 108 64C108 62.2019 106.54 60.7423 104.742 60.7423Z" />
<path d="M42.1058 82.6365C41.2385 82.6365 40.4135 82.975 39.8 83.5885L32.8827 90.5058C32.2692 91.1192 31.9308 91.9442 31.9308 92.8115C31.9308 93.6788 32.2692 94.5038 32.8827 95.1173C33.4962 95.7308 34.3212 96.0692 35.1885 96.0692C36.0558 96.0692 36.8808 95.7308 37.4942 95.1173L44.4115 88.2C45.6808 86.9308 45.6808 84.8577 44.4115 83.5885C43.7981 82.975 42.9731 82.6365 42.1058 82.6365Z" />
<path d="M85.8942 45.3635C86.7615 45.3635 87.5865 45.025 88.2 44.4115L95.1173 37.4942C95.7308 36.8808 96.0692 36.0558 96.0692 35.1885C96.0692 34.3212 95.7308 33.4962 95.1173 32.8827C94.5038 32.2692 93.6788 31.9308 92.8115 31.9308C91.9442 31.9308 91.1192 32.2692 90.5058 32.8827L83.5885 39.8C82.975 40.4135 82.6365 41.2385 82.6365 42.1058C82.6365 42.9731 82.975 43.7981 83.5885 44.4115C84.2019 45.025 85.0269 45.3635 85.8942 45.3635Z" />
<path d="M37.4942 32.8827C36.8808 32.2692 36.0558 31.9308 35.1885 31.9308C34.3212 31.9308 33.4962 32.2692 32.8827 32.8827C32.2692 33.4962 31.9308 34.3212 31.9308 35.1885C31.9308 36.0558 32.2692 36.8808 32.8827 37.4942L39.8 44.4115C40.4135 45.025 41.2385 45.3635 42.1058 45.3635C42.9731 45.3635 43.7981 45.025 44.4115 44.4115C45.025 43.7981 45.3635 42.9731 45.3635 42.1058C45.3635 41.2385 45.025 40.4135 44.4115 39.8L37.4942 32.8827Z" />
<path d="M88.2 83.5885C87.5865 82.975 86.7615 82.6365 85.8942 82.6365C85.0269 82.6365 84.2019 82.975 83.5885 83.5885C82.3192 84.8577 82.3192 86.9308 83.5885 88.2L90.5058 95.1173C91.1192 95.7308 91.9442 96.0692 92.8115 96.0692C93.6788 96.0692 94.5038 95.7308 95.1173 95.1173C95.7308 94.5038 96.0692 93.6788 96.0692 92.8115C96.0692 91.9442 95.7308 91.1192 95.1173 90.5058L88.2 83.5885Z" />
<path d="M64 43.6923C52.8096 43.6923 43.6923 52.8096 43.6923 64C43.6923 75.1904 52.8096 84.3077 64 84.3077C75.1904 84.3077 84.3077 75.1904 84.3077 64C84.3077 52.8096 75.1904 43.6923 64 43.6923Z" />
</svg>
