<svg width="128" height="128" viewBox="0 0 128 128" xmlns="http://www.w3.org/2000/svg">
<path d="M127.749 24.3849C123.03 26.4588 117.99 27.8716 112.683 28.5167C118.091 25.2592 122.251 20.1251 124.219 13.9993C119.147 16.9582 113.526 19.1121 107.542 20.3117C102.764 15.1989 95.9533 12 88.391 12C73.9009 12 62.1521 23.7451 62.1521 38.2146C62.1521 40.2938 62.3921 42.2931 62.8294 44.2071C41.017 43.1781 21.6844 32.7072 8.7463 16.8782C6.46906 20.7275 5.19445 25.2006 5.19445 30.0735C5.19445 39.1902 9.83426 47.2034 16.8633 51.911C12.5595 51.7724 8.51165 50.5888 4.98113 48.6269V48.9521C4.98113 61.6675 14.0101 72.2717 26.0256 74.6868C23.823 75.2786 21.4978 75.5985 19.1139 75.5985C17.4393 75.5985 15.834 75.4386 14.2287 75.14C17.5939 85.5523 27.2682 93.1442 38.7824 93.3575C29.8228 100.39 18.4686 104.58 6.23974 104.58C4.15983 104.58 2.08525 104.457 0 104.223C11.6742 111.655 25.4283 116 40.3023 116C88.5883 116 114.961 76.0357 114.961 41.4348C114.961 40.3205 114.961 39.1956 114.881 38.076C120.006 34.4026 124.48 29.759 128 24.4915L127.749 24.3849Z" />
</svg>
