<?xml version="1.0" standalone="no"?>
<!DOCTYPE svg PUBLIC "-//W3C//DTD SVG 20010904//EN"
 "http://www.w3.org/TR/2001/REC-SVG-20010904/DTD/svg10.dtd">
<svg version="1.0" xmlns="http://www.w3.org/2000/svg"
 width="700.000000pt" height="700.000000pt" viewBox="0 0 700.000000 700.000000"
 preserveAspectRatio="xMidYMid meet">
<metadata>
Created by potrace 1.14, written by Peter Selinger 2001-2017
</metadata>
<g transform="translate(0.000000,700.000000) scale(0.100000,-0.100000)"
fill="#000000" stroke="none">
<path d="M1160 6993 c-82 -13 -232 -48 -280 -65 -355 -130 -633 -390 -775
-725 -47 -113 -73 -210 -95 -353 -11 -73 -11 -4640 0 -4705 5 -27 11 -66 15
-85 52 -290 222 -573 460 -764 110 -88 147 -112 250 -160 44 -21 88 -42 97
-47 16 -8 18 -4 19 28 2 87 15 235 24 281 1 9 6 46 10 82 4 36 8 67 10 70 2 3
6 30 10 60 12 98 62 276 115 412 29 73 63 160 75 193 187 493 296 699 439 832
71 67 165 117 386 204 74 29 137 54 138 55 2 1 5 56 7 121 15 502 24 707 41
1003 15 278 25 397 50 620 32 283 229 826 403 1109 110 178 211 272 399 369
253 132 527 163 795 93 293 -77 485 -196 598 -371 213 -331 414 -880 474
-1295 3 -23 8 -52 10 -65 3 -14 7 -45 10 -70 3 -25 8 -56 10 -70 3 -14 7 -54
10 -90 3 -36 8 -72 10 -80 2 -8 7 -44 10 -80 4 -36 8 -72 10 -80 1 -8 6 -49
10 -90 3 -41 8 -86 10 -100 3 -21 10 -79 30 -270 2 -19 6 -62 10 -95 3 -33 8
-71 10 -85 2 -14 6 -56 10 -95 3 -38 7 -86 10 -105 2 -19 7 -64 10 -100 3 -36
7 -78 9 -95 2 -16 7 -69 11 -116 8 -95 9 -99 45 -116 14 -6 61 -28 105 -48
318 -147 518 -266 601 -357 157 -174 310 -509 348 -762 4 -21 8 -41 10 -45 2
-3 7 -35 11 -71 3 -36 8 -78 10 -95 7 -50 18 -381 19 -538 0 -81 2 -147 4
-147 2 0 36 15 77 34 318 147 575 436 689 777 14 41 28 88 31 104 34 169 34
136 34 2495 0 1452 -4 2327 -10 2365 -16 97 -16 99 -39 181 -99 354 -354 659
-682 818 -102 49 -202 85 -318 112 -71 17 -202 18 -2420 20 -1290 1 -2356 -1
-2370 -3z"/>
<path d="M2685 4184 c3 -66 8 -126 10 -134 2 -8 7 -44 10 -80 4 -36 8 -76 10
-90 3 -14 7 -45 9 -70 3 -25 12 -90 21 -145 8 -55 18 -116 20 -135 16 -102 54
-225 97 -310 47 -94 173 -296 209 -335 11 -13 21 -42 24 -74 3 -33 13 -62 25
-75 11 -11 42 -50 70 -86 50 -63 186 -207 229 -242 136 -112 269 -129 442 -57
74 30 99 44 211 116 l68 44 -6 142 c-3 78 -7 152 -9 164 -2 12 9 41 24 65 66
105 133 290 156 428 4 25 9 54 11 65 2 11 7 45 10 75 3 30 7 66 10 80 3 14 7
129 9 255 4 240 -4 345 -33 405 -28 59 -58 64 -352 61 -636 -7 -777 -5 -915
13 -16 2 -61 7 -98 11 -37 3 -76 8 -86 10 -11 2 -56 7 -101 11 l-82 7 7 -119z"/>
</g>
</svg>
